<svg width="128" height="128" viewBox="0 0 128 128" fill="none" xmlns="http://www.w3.org/2000/svg">
  <rect width="128" height="128" rx="34" fill="#0E1B34"/>
  <rect x="18" y="18" width="92" height="92" rx="28" fill="url(#paint0_linear_1_2)" fill-opacity="0.18"/>
  <path d="M38 72C38 56.536 50.536 44 66 44H92V54H66C56.059 54 48 62.059 48 72C48 81.941 56.059 90 66 90H92V100H66C50.536 100 38 87.464 38 72Z" fill="url(#paint1_linear_1_2)"/>
  <path d="M28 36H52L82 92H58L28 36Z" fill="url(#paint2_linear_1_2)"/>
  <defs>
    <linearGradient id="paint0_linear_1_2" x1="18" y1="18" x2="110" y2="110" gradientUnits="userSpaceOnUse">
      <stop stop-color="#5F8CFF"/>
      <stop offset="1" stop-color="#28D7A1"/>
    </linearGradient>
    <linearGradient id="paint1_linear_1_2" x1="38" y1="44" x2="98" y2="100" gradientUnits="userSpaceOnUse">
      <stop stop-color="#5F8CFF"/>
      <stop offset="1" stop-color="#9FE2FF"/>
    </linearGradient>
    <linearGradient id="paint2_linear_1_2" x1="28" y1="36" x2="82" y2="92" gradientUnits="userSpaceOnUse">
      <stop stop-color="#28D7A1"/>
      <stop offset="1" stop-color="#5F8CFF"/>
    </linearGradient>
  </defs>
</svg>
